<?xml version="1.0" encoding="UTF-8" standalone="no"?>
<!-- Generator: Adobe Illustrator 21.1.0, SVG Export Plug-In . SVG Version: 6.00 Build 0)  -->

<svg
   xmlns:dc="http://purl.org/dc/elements/1.1/"
   xmlns:cc="http://creativecommons.org/ns#"
   xmlns:rdf="http://www.w3.org/1999/02/22-rdf-syntax-ns#"
   xmlns:svg="http://www.w3.org/2000/svg"
   xmlns="http://www.w3.org/2000/svg"
   xmlns:sodipodi="http://sodipodi.sourceforge.net/DTD/sodipodi-0.dtd"
   xmlns:inkscape="http://www.inkscape.org/namespaces/inkscape"
   version="1.1"
   id="Layer_1"
   x="0px"
   y="0px"
   viewBox="0 0 77.400001 20.600001"
   xml:space="preserve"
   sodipodi:docname="iplusoneLogo.svg"
   width="77.400002"
   height="20.6"
   inkscape:version="0.92.2 (5c3e80d, 2017-08-06)"><metadata
     id="metadata4560"><rdf:RDF><cc:Work
         rdf:about=""><dc:format>image/svg+xml</dc:format><dc:type
           rdf:resource="http://purl.org/dc/dcmitype/StillImage" /><dc:title>MainLogo</dc:title></cc:Work></rdf:RDF></metadata><defs
     id="defs4558"><clipPath
       clipPathUnits="userSpaceOnUse"
       id="clipPath4576"><path
         class="st1"
         d="m 13.8,11.4 v 0 c 0.5,0 0.8,0.4 0.8,0.8 v 0 1.8 h 1.7 c 0.5,0 0.8,0.4 0.8,0.8 v 0 0 c 0,0.5 -0.4,0.8 -0.8,0.8 v 0 h -1.7 v 1.7 c 0,0.5 -0.4,0.8 -0.8,0.8 v 0 0 C 13.3,18.1 13,17.7 13,17.3 v 0 -1.7 h -1.7 c -0.5,0 -0.8,-0.4 -0.8,-0.8 v 0 0 c 0,-0.5 0.4,-0.8 0.8,-0.8 v 0 H 13 v -1.7 c -0.1,-0.5 0.3,-0.9 0.8,-0.9 z"
         id="path4578"
         inkscape:connector-curvature="0"
         style="fill:#005580" /></clipPath><clipPath
       clipPathUnits="userSpaceOnUse"
       id="clipPath4580"><path
         class="st1"
         d="m 13.8,11.4 v 0 c 0.5,0 0.8,0.4 0.8,0.8 v 0 1.8 h 1.7 c 0.5,0 0.8,0.4 0.8,0.8 v 0 0 c 0,0.5 -0.4,0.8 -0.8,0.8 v 0 h -1.7 v 1.7 c 0,0.5 -0.4,0.8 -0.8,0.8 v 0 0 C 13.3,18.1 13,17.7 13,17.3 v 0 -1.7 h -1.7 c -0.5,0 -0.8,-0.4 -0.8,-0.8 v 0 0 c 0,-0.5 0.4,-0.8 0.8,-0.8 v 0 H 13 v -1.7 c -0.1,-0.5 0.3,-0.9 0.8,-0.9 z"
         id="path4582"
         inkscape:connector-curvature="0"
         style="fill:#005580" /></clipPath><clipPath
       clipPathUnits="userSpaceOnUse"
       id="clipPath4584"><path
         class="st1"
         d="m 13.8,11.4 v 0 c 0.5,0 0.8,0.4 0.8,0.8 v 0 1.8 h 1.7 c 0.5,0 0.8,0.4 0.8,0.8 v 0 0 c 0,0.5 -0.4,0.8 -0.8,0.8 v 0 h -1.7 v 1.7 c 0,0.5 -0.4,0.8 -0.8,0.8 v 0 0 C 13.3,18.1 13,17.7 13,17.3 v 0 -1.7 h -1.7 c -0.5,0 -0.8,-0.4 -0.8,-0.8 v 0 0 c 0,-0.5 0.4,-0.8 0.8,-0.8 v 0 H 13 v -1.7 c -0.1,-0.5 0.3,-0.9 0.8,-0.9 z"
         id="path4586"
         inkscape:connector-curvature="0"
         style="fill:#005580" /></clipPath><clipPath
       clipPathUnits="userSpaceOnUse"
       id="clipPath4588"><path
         class="st1"
         d="m 13.8,11.4 v 0 c 0.5,0 0.8,0.4 0.8,0.8 v 0 1.8 h 1.7 c 0.5,0 0.8,0.4 0.8,0.8 v 0 0 c 0,0.5 -0.4,0.8 -0.8,0.8 v 0 h -1.7 v 1.7 c 0,0.5 -0.4,0.8 -0.8,0.8 v 0 0 C 13.3,18.1 13,17.7 13,17.3 v 0 -1.7 h -1.7 c -0.5,0 -0.8,-0.4 -0.8,-0.8 v 0 0 c 0,-0.5 0.4,-0.8 0.8,-0.8 v 0 H 13 v -1.7 c -0.1,-0.5 0.3,-0.9 0.8,-0.9 z"
         id="path4590"
         inkscape:connector-curvature="0"
         style="fill:#005580" /></clipPath></defs><sodipodi:namedview
     pagecolor="#ffffff"
     bordercolor="#666666"
     borderopacity="1"
     objecttolerance="10"
     gridtolerance="10"
     guidetolerance="10"
     inkscape:pageopacity="0"
     inkscape:pageshadow="2"
     inkscape:window-width="1920"
     inkscape:window-height="986"
     id="namedview4556"
     showgrid="false"
     inkscape:zoom="11.17504"
     inkscape:cx="41.113779"
     inkscape:cy="10.07897"
     inkscape:window-x="-11"
     inkscape:window-y="1609"
     inkscape:window-maximized="1"
     inkscape:current-layer="Layer_1" /><style
     type="text/css"
     id="style4533">
	.st0{fill:#666666;}
	.st1{fill:#005580;}
	.st2{fill:#FFFFFF;}
</style><title
     id="title4535">MainLogo</title><path
     class="st0"
     d="M 0.3,16.5 V 4.6 h 2 V 16.5 Z M 1.4,0 C 2.1,0 2.7,0.6 2.7,1.3 2.7,2.1 2.1,2.7 1.4,2.8 0.6,2.8 0,2.2 0,1.4 0,0.7 0.6,0 1.4,0 c 0,0 0,0 0,0 z"
     id="path4537"
     inkscape:connector-curvature="0"
     style="fill:#666666" /><path
     class="st1"
     d="m 7.9,15.4 v 5.2 H 4.5 v -16 h 3.2 l 0.2,1.1 c 0.8,-0.9 2,-1.4 3.2,-1.4 3.4,0 4.6,2.9999997 4.6,6 0,3 -1.1,6.2 -4.5,6.2 -1.3,0.1 -2.5,-0.3 -3.3,-1.1 z m 8.7,0.9 V 0 h 3.5 V 16.3 Z M 28.2,12.7 V 4.6 h 3.5 v 11.7 h -3.2 l -0.1,-1.1 c -0.9,0.8 -2.1,1.3 -3.3,1.3 -2.7,0 -3.8,-1.7 -3.8,-4.3 V 4.6 h 3.5 v 7.7 c 0,0.9 0.3,1.5 1.3,1.5 0.8,0 1.6,-0.5 2.1,-1.1 z m 4.7,2.5 1.4,-2.5 0.2,0.1 c 1,0.6 2.2,1 3.4,1 0.6,0 1.4,-0.1 1.4,-0.9 0,-1.6 -6.1,-0.5 -6.1,-4.9000003 C 33.2,5.4 35.6,4.3 37.9,4.3 c 1.5,0 3,0.4 4.3,1 l 0.2,0.1 -1.3,2.4999997 -0.2,-0.1 c -0.9,-0.5 -2,-0.7 -3,-0.8 -0.5,0 -1.3,0.1 -1.3,0.9 0,1.6 6.1,0.5 6.1,4.8000003 0,2.7 -2.4,3.8 -4.8,3.8 -1.7,0 -3.3,-0.4 -4.8,-1.3 z m -25,-2.4 c 0.5,0.7 1.3,1 2.1,1 1.7,0 2,-2.1 2,-3.4 0,-1.3000003 -0.3,-3.2000003 -2,-3.2000003 -0.8,0 -1.6,0.4 -2.1,1.1 z"
     id="path4539"
     inkscape:connector-curvature="0"
     style="fill:#005580" /><path
     class="st0"
     d="m 44.4,10.4 c 0,-3.3000003 2.1,-6 5.6,-6 3.5,0 5.6,2.6999997 5.6,6 0,3.3 -1.9,6.4 -5.6,6.4 -3.7,0 -5.6,-2.9 -5.6,-6.4 z M 58.5,5.8 c 1,-0.9 2.3,-1.4 3.6,-1.4 2.6,0 3.8,1.5999997 3.8,4.0999997 V 16.5 h -2 V 8.4999997 c 0,-1.4 -0.5,-2.3 -2,-2.3 -1.3,0 -2.6,0.7 -3.4,1.7 V 16.4 h -2 V 4.7 h 1.8 z m 10.6,5 c 0.1,2.3 1,4 3.6,4 1.1,0 2.1,-0.4 3,-1 l 0.3,-0.3 1.1,1.5 -0.3,0.3 c -1.2,0.9 -2.7,1.3 -4.2,1.3 -3.8,0 -5.6,-2.7 -5.6,-6.4 0,-3.3000003 2,-6 5.6,-6 3.2,0 4.8,2.1999997 4.8,5.1999997 0,0.3 0,0.6 -0.1,0.9000003 l -0.1,0.4 z M 46.4,10.4 c 0,2.3 1,4.5 3.5,4.5 2.5,0 3.5,-2.3 3.5,-4.5 0,-2.2000003 -1.1,-4.2000003 -3.5,-4.2000003 -2.4,0 -3.5,2 -3.5,4.2000003 z M 69.2,9.0999997 h 6.1 c -0.1,-1.6 -0.9,-2.9 -2.7,-2.9 -1.6,0 -3.1,1.2 -3.4,2.9 z"
     id="path4541"
     inkscape:connector-curvature="0"
     style="fill:#666666" /><path
     class="st1"
     d="m 8.5,9.9 c 0.6,0 1,0.5 1,1.1 0,0.6 -0.5,1 -1,1 -0.5,0 -1.1,-0.5 -1.1,-1 0,-0.5 0.5,-1.1 1.1,-1.1 0,0 0,0 0,0 z"
     id="path4547"
     clip-path="url(#clipPath4584)"
     inkscape:connector-curvature="0"
     style="fill:#005580"
     transform="translate(-21.928499,-4.1789703)" /><path
     class="st0"
     d="m 8.5,12.5 v 0 c 0.5,0 0.9,0.4 0.9,0.9 v 5.4 c 0,0.5 -0.4,0.9 -0.9,0.9 v 0 C 8,19.7 7.6,19.3 7.6,18.8 V 13.4 C 7.6,13 8,12.6 8.5,12.5 Z"
     id="path4549"
     clip-path="url(#clipPath4580)"
     inkscape:connector-curvature="0"
     style="fill:#666666"
     transform="translate(-21.928499,-4.1789703)" /><path
     class="st0"
     d="m 21.5,10.3 v 0 c 0,0.1 0.1,0.2 0.1,0.4 v 8.1 c 0,0.5 -0.4,0.9 -0.9,0.9 v 0 c -0.5,0 -0.9,-0.4 -0.9,-0.9 v -6.7 l -0.5,0.2 c -0.5,0.2 -1,0 -1.2,-0.5 0,0 0,0 0,0 v 0 c -0.2,-0.5 0,-1 0.5,-1.2 0,0 0,0 0,0 l 1.7,-0.7 c 0.5,-0.2 1,0 1.2,0.4 z"
     id="path4551"
     clip-path="url(#clipPath4576)"
     inkscape:connector-curvature="0"
     style="fill:#666666"
     transform="translate(-21.928499,-4.1789703)" /></svg>